<svg width="24" height="24" viewBox="0 0 24 24" fill="none" xmlns="http://www.w3.org/2000/svg">
<path d="M12 1.26998C9.37473 1.25169 6.82947 2.17295 4.82408 3.86732C2.8187 5.56169 1.48545 7.91744 1.0652 10.5089C0.644962 13.1004 1.16544 15.7568 2.53261 17.998C3.89978 20.2393 6.02348 21.9177 8.52001 22.73C9.07001 22.82 9.25001 22.45 9.25001 22.18V20.34C6.22001 20.98 5.58001 18.88 5.58001 18.88C5.03001 17.59 4.30001 17.23 4.30001 17.23C3.38001 16.58 4.40001 16.58 4.40001 16.58C5.50001 16.58 6.13001 17.68 6.13001 17.68C7.05001 19.33 8.70001 18.88 9.34001 18.6C9.33952 18.3241 9.39612 18.051 9.50626 17.798C9.61641 17.5451 9.7777 17.3176 9.98001 17.13C7.51001 16.86 4.94001 15.94 4.94001 11.63C4.94001 10.53 5.40001 9.52998 6.14001 8.78998C5.94391 8.32646 5.84287 7.82828 5.84287 7.32498C5.84287 6.82168 5.94391 6.32351 6.14001 5.85998C6.14001 5.85998 7.05001 5.57998 9.25001 6.95998C11.05 6.46998 12.95 6.46998 14.75 6.95998C16.85 5.57998 17.77 5.85998 17.77 5.85998C17.9661 6.32351 18.0672 6.82168 18.0672 7.32498C18.0672 7.82828 17.9661 8.32646 17.77 8.78998C18.6 9.52998 18.97 10.53 18.97 11.73C18.97 15.94 16.4 16.86 13.93 17.13C14.38 17.5 14.75 18.05 14.75 19.15V22.18C14.75 22.45 14.85 22.82 15.48 22.73C17.9765 21.9177 20.1002 20.2393 21.4674 17.998C22.8346 15.7568 23.3551 13.1004 22.9348 10.5089C22.5146 7.91744 21.1813 5.56169 19.1759 3.86732C17.1706 2.17295 14.6253 1.25169 12 1.26998Z" fill="black"/>
</svg>
